<?xml version="1.0" standalone="no"?>
<!DOCTYPE svg PUBLIC "-//W3C//DTD SVG 20010904//EN"
 "http://www.w3.org/TR/2001/REC-SVG-20010904/DTD/svg10.dtd">
<svg version="1.0" xmlns="http://www.w3.org/2000/svg"
 width="600.000000pt" height="600.000000pt" viewBox="0 0 600.000000 600.000000"
 preserveAspectRatio="xMidYMid meet">
<metadata>
Created by potrace 1.14, written by Peter Selinger 2001-2017
</metadata>
<g transform="translate(0.000000,600.000000) scale(0.100000,-0.100000)"
fill="#000000" stroke="none">
<path d="M0 5423 l0 -388 96 -160 c93 -157 294 -545 294 -569 0 -7 -78 -31
-195 -60 l-195 -48 0 -1960 0 -1961 27 6 c16 4 90 21 166 40 75 19 137 32 137
30 0 -2 -9 -21 -19 -41 -12 -24 -43 -54 -83 -82 -213 -148 -228 -160 -228
-196 l0 -34 393 0 393 0 115 96 c147 124 355 311 494 445 l110 105 348 87
c191 48 352 87 358 87 6 0 -19 -56 -55 -124 -36 -67 -63 -126 -59 -130 3 -3
15 -6 25 -6 10 0 18 -2 18 -4 0 -3 -25 -48 -56 -101 -30 -53 -56 -108 -57
-123 l-2 -27 178 0 179 0 94 165 c52 91 131 236 177 322 76 146 85 159 117
168 60 18 1604 400 1615 400 6 0 19 -24 29 -52 10 -29 27 -71 37 -93 10 -22
33 -76 51 -120 l34 -80 55 -5 c31 -3 62 -10 71 -17 9 -8 74 -15 181 -19 151
-6 167 -5 173 10 4 10 -18 77 -54 164 -75 180 -122 303 -122 317 0 6 261 75
580 154 l580 144 0 1963 c0 1080 -1 1964 -2 1964 -2 -1 -325 -81 -718 -179
-393 -98 -716 -177 -718 -176 -4 4 43 183 82 312 28 93 32 114 20 124 -17 14
-306 30 -362 19 -23 -4 -42 -5 -42 -2 0 3 -9 -3 -19 -12 -10 -10 -22 -32 -25
-51 -7 -38 -21 -52 -56 -57 -23 -3 -27 -15 -81 -233 -32 -129 -63 -233 -70
-237 -13 -8 -1301 -328 -1317 -328 -4 0 -46 32 -92 70 -47 39 -123 96 -169
128 -46 31 -129 98 -184 147 -54 50 -131 118 -171 152 l-71 63 -172 0 c-199 0
-204 -3 -123 -71 34 -29 49 -48 45 -59 -4 -11 15 -34 60 -74 72 -63 284 -294
370 -401 l55 -70 -227 -57 -227 -57 -115 96 c-375 315 -909 663 -1481 966 -69
36 -135 75 -147 86 -12 12 -27 21 -33 21 -7 0 -10 -125 -10 -387z m599 -334
c14 -11 94 -65 178 -119 230 -149 573 -406 573 -429 0 -7 -429 -116 -434 -110
-2 2 -29 58 -61 124 -73 150 -148 287 -238 435 -38 63 -72 119 -75 124 -8 14
26 -1 57 -25z m4871 -237 c135 -53 198 -191 155 -338 -13 -46 -27 -69 -65
-106 -75 -72 -121 -83 -360 -83 l-195 0 -67 33 c-109 53 -157 144 -145 272 6
68 26 115 69 159 73 75 145 91 378 88 152 -3 182 -6 230 -25z m-35 -657 c77
-20 132 -58 170 -120 28 -45 30 -56 30 -139 0 -106 -19 -152 -85 -209 -70 -59
-129 -72 -335 -72 -222 0 -271 12 -345 83 -38 37 -52 60 -65 106 -48 165 38
316 202 355 67 16 362 13 428 -4z m53 -684 c62 -28 124 -93 140 -149 20 -67
15 -160 -12 -217 -51 -109 -123 -144 -316 -157 -289 -18 -414 21 -476 148 -49
101 -34 235 34 307 80 85 130 97 382 94 181 -2 199 -4 248 -26z m-16 -647 c53
-18 122 -73 144 -116 24 -47 35 -138 24 -199 -24 -126 -94 -203 -202 -223
l-38 -7 0 84 0 85 35 6 c47 9 75 47 75 103 0 24 -5 53 -10 64 -17 30 -70 52
-130 53 -68 1 -117 -18 -135 -55 -22 -41 -19 -118 5 -157 19 -31 19 -35 4 -97
-14 -57 -19 -64 -38 -60 -11 2 -91 11 -176 20 -85 9 -170 18 -187 21 l-33 5 0
229 0 230 65 0 65 0 0 -159 c0 -88 3 -162 8 -164 4 -3 44 -8 89 -12 l81 -7
-15 44 c-33 94 4 226 78 279 68 48 203 64 291 33z"/>
<path d="M5135 4711 c-142 -7 -178 -19 -201 -62 -29 -56 -7 -116 52 -144 31
-15 65 -17 226 -16 197 1 236 8 269 47 26 31 31 71 13 109 -29 61 -117 77
-359 66z"/>
<path d="M5044 4041 c-66 -11 -101 -35 -113 -77 -16 -59 7 -105 66 -130 39
-17 368 -20 424 -4 53 15 84 53 84 104 0 88 -46 109 -255 112 -85 1 -178 -1
-206 -5z"/>
<path d="M5023 3369 c-60 -14 -93 -51 -93 -106 0 -53 28 -86 86 -102 51 -14
343 -14 400 0 55 14 94 57 94 104 0 47 -39 90 -94 104 -53 13 -333 13 -393 0z"/>
</g>
</svg>
