<?xml version="1.0" standalone="no"?>
<!DOCTYPE svg PUBLIC "-//W3C//DTD SVG 20010904//EN"
 "http://www.w3.org/TR/2001/REC-SVG-20010904/DTD/svg10.dtd">
<svg version="1.0" xmlns="http://www.w3.org/2000/svg"
 width="600.000000pt" height="600.000000pt" viewBox="0 0 600.000000 600.000000"
 preserveAspectRatio="xMidYMid meet">
<metadata>
Created by potrace 1.14, written by Peter Selinger 2001-2017
</metadata>
<g transform="translate(0.000000,600.000000) scale(0.100000,-0.100000)"
fill="#000000" stroke="none">
<path d="M1350 5696 c0 -8 121 -88 126 -84 2 3 -20 21 -48 40 -65 43 -78 51
-78 44z"/>
<path d="M4990 5440 c-547 -137 -996 -248 -997 -247 -1 1 -4 27 -7 57 -5 57
-50 170 -67 170 -6 0 -8 9 -4 19 4 14 0 21 -13 25 -11 4 -24 16 -30 29 -6 12
-11 16 -11 8 -1 -10 -6 -9 -18 5 -19 20 -34 26 -70 28 -12 1 -25 4 -29 9 -12
12 -48 8 -72 -9 -12 -8 -26 -13 -31 -9 -5 3 -24 -8 -42 -25 -19 -16 -37 -30
-41 -30 -5 0 -8 -6 -8 -14 0 -8 -4 -16 -10 -18 -11 -4 -43 -147 -36 -165 3 -7
2 -15 -3 -17 -4 -3 -7 -41 -6 -86 1 -45 -3 -87 -9 -95 -6 -8 -202 -61 -444
-120 -389 -96 -436 -106 -463 -95 -16 7 -28 15 -25 17 12 12 -18 60 -44 71
-19 9 -30 21 -30 33 0 16 -3 18 -19 9 -16 -8 -20 -7 -19 7 3 37 -12 70 -38 83
-14 8 -32 27 -40 42 -8 16 -19 26 -24 23 -5 -3 -15 3 -22 13 -7 11 -16 19 -20
18 -3 0 -23 14 -43 32 -20 17 -40 32 -44 32 -3 0 -22 15 -41 32 -52 49 -212
127 -244 119 -5 -1 -27 5 -49 14 -23 9 -64 18 -91 20 -44 3 -60 11 -121 60
-82 66 -179 131 -174 117 2 -5 49 -44 104 -87 133 -102 134 -103 125 -161 -9
-57 5 -119 36 -161 13 -17 24 -38 24 -45 0 -9 3 -9 10 2 8 12 10 11 10 -6 0
-11 5 -25 10 -30 6 -6 19 -26 30 -45 10 -19 23 -33 30 -31 6 1 9 -1 6 -6 -7
-12 53 -78 67 -74 7 2 9 0 5 -3 -12 -12 12 -47 28 -41 9 3 14 -1 14 -13 0 -22
46 -78 56 -68 4 4 14 -2 22 -14 8 -11 12 -23 8 -26 -6 -7 24 -38 37 -38 6 0
12 -5 14 -12 4 -12 -22 -22 -144 -53 -96 -24 -133 -25 -133 -6 0 22 -24 38
-38 24 -9 -9 -12 -9 -12 -1 0 7 4 15 10 18 16 10 -12 44 -42 50 -15 4 -28 13
-28 21 0 8 -7 14 -15 14 -8 0 -23 18 -33 40 -10 22 -21 38 -24 34 -4 -3 -11 4
-18 15 -6 12 -17 21 -25 21 -8 0 -15 4 -15 10 0 5 -7 7 -15 3 -9 -3 -15 -2
-13 3 4 15 -22 55 -33 49 -5 -4 -9 -1 -9 4 0 6 -7 11 -17 11 -9 0 -14 3 -10 6
6 7 -80 94 -94 94 -5 0 -9 5 -9 10 0 6 -11 15 -25 20 -14 5 -28 16 -31 24 -3
8 -11 13 -18 10 -7 -3 -19 2 -26 11 -7 8 -18 15 -25 15 -7 0 -18 7 -25 15 -7
8 -21 15 -31 15 -11 0 -19 4 -19 9 0 11 -56 41 -77 41 -7 0 -13 5 -13 10 0 6
-6 10 -14 10 -8 0 -21 6 -28 14 -12 12 -45 21 -103 30 -24 3 -52 13 -85 31
-31 16 -113 10 -145 -11 -14 -9 -27 -30 -31 -49 -7 -42 4 -95 19 -92 7 1 11
-8 9 -23 -2 -20 -1 -22 7 -10 9 12 11 11 11 -7 0 -13 4 -23 9 -23 5 0 24 -23
41 -52 25 -39 33 -66 37 -117 2 -36 8 -68 11 -71 4 -3 8 -21 9 -40 1 -19 8
-48 17 -65 9 -16 16 -38 16 -47 0 -10 6 -32 14 -50 16 -40 36 -97 41 -120 2
-9 11 -44 21 -78 9 -33 15 -62 13 -64 -2 -2 -116 -31 -254 -65 -137 -34 -359
-89 -492 -123 l-243 -61 0 -1960 0 -1959 22 4 c13 3 166 40 341 82 175 43 321
75 325 72 11 -12 -14 -40 -57 -65 -23 -13 -40 -25 -38 -27 3 -3 21 5 41 17 29
17 36 18 36 6 0 -8 -13 -28 -30 -44 -34 -32 -37 -43 -12 -43 14 0 17 -9 17
-53 0 -35 7 -66 23 -95 12 -23 22 -49 22 -57 0 -9 9 -15 21 -15 16 0 20 5 16
19 -3 14 -1 18 9 14 8 -3 14 1 14 11 0 9 7 16 16 16 11 0 13 -6 9 -19 -8 -26
12 -37 34 -17 10 9 20 14 23 11 3 -3 22 9 42 28 20 19 36 32 36 28 0 -7 26 17
98 89 28 29 52 61 52 71 0 11 5 19 10 19 6 0 15 11 20 25 5 14 14 25 19 25 5
0 11 8 15 18 7 21 28 55 39 63 5 4 14 15 20 26 38 63 53 80 76 91 30 15 1222
314 1228 309 5 -5 -80 -171 -89 -175 -5 -2 -8 -11 -8 -21 0 -9 -4 -21 -9 -26
-5 -6 -14 -26 -19 -45 -6 -19 -29 -87 -51 -150 -23 -63 -43 -119 -44 -125 -2
-5 -7 -17 -12 -25 -20 -31 -35 -63 -35 -75 0 -11 -20 -59 -41 -99 -14 -24 5
-46 23 -28 17 17 39 15 32 -3 -10 -24 9 -17 37 13 13 15 43 44 64 64 63 60 85
83 85 92 0 11 27 36 38 36 5 0 20 16 33 35 13 19 27 35 31 35 15 0 158 155
158 170 0 6 11 15 25 20 14 5 24 14 23 19 -2 5 12 23 31 40 19 17 31 31 27 31
-3 0 12 25 34 55 22 30 40 56 40 59 0 3 13 20 30 38 17 18 30 36 30 40 0 4 10
22 23 41 12 19 33 53 47 75 18 31 35 45 61 52 69 19 1524 378 1559 384 32 6
33 5 15 -9 -17 -13 -18 -16 -5 -25 8 -5 11 -10 7 -10 -9 0 61 -71 103 -104 19
-15 22 -16 17 -2 -4 9 -1 16 5 16 6 0 8 -11 5 -30 -5 -23 -3 -28 8 -24 15 6
67 -29 65 -43 -1 -4 3 -9 9 -11 17 -6 6 52 -33 170 -20 59 -36 109 -36 111 0
3 277 74 615 158 l615 152 0 1964 c0 1079 -3 1963 -7 1962 -5 -1 -456 -113
-1003 -249z m-2560 -400 c0 -5 -7 -10 -16 -10 -8 0 -12 5 -9 10 3 6 10 10 16
10 5 0 9 -4 9 -10z m99 -131 c-16 -10 -23 -4 -14 10 3 6 11 8 17 5 6 -4 5 -9
-3 -15z m2941 -57 c135 -53 198 -191 155 -338 -13 -46 -27 -69 -65 -106 -75
-72 -121 -83 -360 -83 l-195 0 -67 33 c-109 53 -157 144 -145 272 6 68 26 115
69 159 73 75 145 91 378 88 152 -3 182 -6 230 -25z m-35 -657 c77 -20 132 -58
170 -120 28 -45 30 -56 30 -139 0 -106 -19 -152 -85 -209 -70 -59 -129 -72
-335 -72 -222 0 -271 12 -345 83 -38 37 -52 60 -65 106 -48 165 38 316 202
355 67 16 362 13 428 -4z m53 -684 c62 -28 124 -93 140 -149 20 -67 15 -160
-12 -217 -51 -109 -123 -144 -316 -157 -289 -18 -414 21 -476 148 -49 101 -34
235 34 307 80 85 130 97 382 94 181 -2 199 -4 248 -26z m-16 -647 c53 -18 122
-73 144 -116 24 -47 35 -138 24 -199 -24 -126 -94 -203 -202 -223 l-38 -7 0
84 0 85 35 6 c47 9 75 47 75 103 0 24 -5 53 -10 64 -17 30 -70 52 -130 53 -68
1 -117 -18 -135 -55 -22 -41 -19 -118 5 -157 19 -31 19 -35 4 -97 -14 -57 -19
-64 -38 -60 -11 2 -91 11 -176 20 -85 9 -170 18 -187 21 l-33 5 0 229 0 230
65 0 65 0 0 -159 c0 -88 3 -162 8 -164 4 -3 44 -8 89 -12 l81 -7 -15 44 c-33
94 4 226 78 279 68 48 203 64 291 33z m-777 -1494 c3 -5 1 -10 -4 -10 -6 0
-11 5 -11 10 0 6 2 10 4 10 3 0 8 -4 11 -10z m41 -65 c-3 -23 -12 -26 -13 -5
-1 11 2 20 7 20 4 0 7 -7 6 -15z m-2325 -919 c-6 -7 -8 -16 -4 -19 3 -4 0 -7
-8 -7 -8 -1 -27 -22 -43 -47 -18 -29 -32 -41 -34 -33 -3 8 0 16 6 18 6 2 22
21 34 43 12 21 25 39 30 39 4 0 8 7 8 16 0 8 5 12 10 9 8 -5 8 -11 1 -19z
m-1571 -146 c0 -5 -5 -10 -11 -10 -5 0 -7 5 -4 10 3 6 8 10 11 10 2 0 4 -4 4
-10z m1470 1 c0 -5 -7 -17 -16 -25 -8 -9 -16 -25 -17 -35 0 -11 -11 -24 -24
-30 l-22 -10 20 37 c18 31 48 69 57 71 1 1 2 -3 2 -8z m-1490 -31 c0 -5 -4
-10 -10 -10 -5 0 -10 5 -10 10 0 6 5 10 10 10 6 0 10 -4 10 -10z m-30 -61 c-7
-11 -14 -18 -17 -15 -3 3 0 12 7 21 18 21 23 19 10 -6z"/>
<path d="M5135 4711 c-142 -7 -178 -19 -201 -62 -29 -56 -7 -116 52 -144 31
-15 65 -17 226 -16 197 1 236 8 269 47 26 31 31 71 13 109 -29 61 -117 77
-359 66z"/>
<path d="M5044 4041 c-66 -11 -101 -35 -113 -77 -16 -59 7 -105 66 -130 39
-17 368 -20 424 -4 53 15 84 53 84 104 0 88 -46 109 -255 112 -85 1 -178 -1
-206 -5z"/>
<path d="M5023 3369 c-60 -14 -93 -51 -93 -106 0 -53 28 -86 86 -102 51 -14
343 -14 400 0 55 14 94 57 94 104 0 47 -39 90 -94 104 -53 13 -333 13 -393 0z"/>
<path d="M504 294 c-18 -14 -18 -15 4 -4 12 6 22 13 22 15 0 8 -5 6 -26 -11z"/>
<path d="M434 254 c-18 -14 -18 -15 4 -4 12 6 22 13 22 15 0 8 -5 6 -26 -11z"/>
<path d="M344 204 c-18 -14 -18 -15 4 -4 12 6 22 13 22 15 0 8 -5 6 -26 -11z"/>
<path d="M280 170 c-9 -6 -10 -10 -3 -10 6 0 15 5 18 10 8 12 4 12 -15 0z"/>
<path d="M230 145 c-14 -8 -20 -14 -14 -15 5 0 19 7 30 15 24 18 16 19 -16 0z"/>
<path d="M90 70 c-9 -6 -10 -10 -3 -10 6 0 15 5 18 10 8 12 4 12 -15 0z"/>
<path d="M16 35 c-25 -19 -9 -19 24 0 14 8 19 14 10 14 -8 0 -24 -6 -34 -14z"/>
</g>
</svg>
